<svg width="80" height="80" viewBox="0 0 80 80" fill="none" xmlns="http://www.w3.org/2000/svg">
<circle cx="40" cy="40" r="38" fill="transparent" stroke="white" stroke-width="4"/>
<path d="M72.5781 25.6953C71.7188 25.7734 70.8984 25.9297 70.1172 26.1641C69.3359 26.3984 68.5286 26.763 67.6953 27.2578C66.5755 27.9089 65.7031 28.612 65.0781 29.3672C64.4792 30.0964 63.8802 31.112 63.2812 32.4141C62.474 34.2109 61.3411 36.8411 59.8828 40.3047C58.4245 43.7422 56.7578 47.6615 54.8828 52.0625C53.2161 56.0208 51.4062 60.3568 49.4531 65.0703C47.526 69.7839 45.6771 74.3021 43.9062 78.625H36.0547C32.4089 69.6927 28.6979 60.6172 24.9219 51.3984C21.1458 42.1797 18.4896 35.7734 16.9531 32.1797C16.3542 30.8776 15.7682 29.901 15.1953 29.25C14.6484 28.5729 13.763 27.8828 12.5391 27.1797C11.6536 26.6849 10.8724 26.3464 10.1953 26.1641C9.51823 25.9557 8.61979 25.7734 7.5 25.6172V22.5703H37.5391V25.5391C34.7266 25.8776 32.8125 26.2422 31.7969 26.6328C30.8073 26.9974 30.3125 27.4661 30.3125 28.0391C30.3125 28.3255 30.3516 28.638 30.4297 28.9766C30.5339 29.2891 30.6771 29.7188 30.8594 30.2656C31.6927 32.5573 33.2031 36.3073 35.3906 41.5156C37.5781 46.6979 40.8203 54.6146 45.1172 65.2656C47.7474 58.7812 49.9349 53.2995 51.6797 48.8203C53.4245 44.3411 54.9609 40.3828 56.2891 36.9453C56.9401 35.2786 57.474 33.7292 57.8906 32.2969C58.3333 30.8385 58.5547 29.7448 58.5547 29.0156C58.5547 28.1823 57.9557 27.4922 56.7578 26.9453C55.5599 26.3724 53.3464 25.9557 50.1172 25.6953V22.5703H72.5781V25.6953Z" fill="white"/>
</svg>
