<svg xmlns="http://www.w3.org/2000/svg" width="131" height="129" fill="none"><path fill="#245EAC" d="M31.532 103.11c5.718 7.073 12.984 12.732 21.202 16.205a95.27 95.27 0 0 1-10.125-18.777c-3.811.643-7.503 1.414-11.077 2.572Zm21.795 14.918V99.766c-3.216 0-6.431.258-9.529.643a97.814 97.814 0 0 0 9.529 17.619ZM43.322 99.124c3.216-.386 6.67-.644 10.005-.772V80.217c-5.243 0-10.482.386-15.484.902 1.31 6.172 3.097 12.217 5.479 18.004Z"/><path fill="#245EAC" d="M30.34 103.496c-3.573 1.157-6.909 2.701-9.886 4.372 8.933 7.715 20.13 12.474 32.278 12.861-8.814-3.73-16.437-9.645-22.392-17.233Zm5.24-42.569h17.748v-16.72c-5.36 0-10.718-.385-15.842-.9-1.191 5.915-1.787 11.831-1.906 17.618v.002Zm2.262-18.905c5.003.643 10.244.902 15.485.902V24.66c-3.335 0-6.79-.258-10.006-.772-2.381 5.915-4.168 11.96-5.479 18.136v-.003Zm-.356 37.81c5.12-.643 10.482-.901 15.841-.901v-16.72H35.581c.118 5.787.714 11.704 1.905 17.62ZM20.215 84.59c-5.002 1.415-9.528 3.087-13.578 5.016 3.216 6.688 7.623 12.474 12.745 17.362a52.58 52.58 0 0 1 10.125-4.501c-3.932-5.402-7.145-11.446-9.292-17.877Zm33.112-61.214V5.112a97.823 97.823 0 0 0-9.529 17.62c3.097.385 6.313.642 9.529.642v.002Zm-11.197.384c-3.93-.643-7.74-1.415-11.314-2.572-3.93 5.273-7.145 11.188-9.409 17.748a108.126 108.126 0 0 0 15.246 2.956c1.31-6.173 3.096-12.218 5.478-18.136v.004Zm0 75.62c-2.38-5.787-4.168-11.96-5.478-18.004a108.144 108.144 0 0 0-15.246 2.955c2.264 6.559 5.48 12.474 9.41 17.748 3.572-1.286 7.384-2.187 11.315-2.701v.002Zm-21.2-59.287a66.693 66.693 0 0 0-3.335 20.834h16.913c0-5.787.715-11.832 1.906-17.877a108.694 108.694 0 0 1-15.484-2.955v-.002Zm-3.335 22.12c.119 7.202 1.192 14.278 3.335 20.834a111.453 111.453 0 0 1 15.484-2.956c-1.191-6.044-1.906-11.96-1.906-17.876l-16.913-.002Zm11.911-41.411C25.933 19.516 22.479 18.1 19.38 16.3A60.103 60.103 0 0 0 6.518 33.534c4.05 1.929 8.576 3.73 13.578 5.016 2.259-6.41 5.433-12.4 9.41-17.748ZM16.404 62.213H.086C.205 71.6 2.349 80.603 6.04 88.449c4.05-2.058 8.695-3.73 13.697-5.144a68.332 68.332 0 0 1-3.334-21.091v-.001Zm3.336-22.377c-5.003-1.415-9.649-3.087-13.698-5.144C2.35 42.537.206 51.539.087 60.928h16.317a68.304 68.304 0 0 1 3.335-21.092Zm32.992-36.01c-8.219 3.472-15.484 9.13-21.083 16.204 3.454 1.157 7.145 1.928 10.958 2.444 2.74-6.56 6.195-12.99 10.125-18.648Z"/><path fill="#245EAC" d="M52.732 2.54c-12.269.257-23.345 5.016-32.278 12.731 3.096 1.673 6.43 3.216 9.886 4.373C36.294 12.057 43.918 6.143 52.731 2.54Z"/><path fill="#FED500" d="m70.663 96.497-.146-.223c-.011-.018-.035-.047-.058-.075-.093-.115-.232-.287-.263-.534-.07-.533-.14-1.1-.146-1.667-.004-.425.01-.852.025-1.264.013-.4.027-.81.024-1.209a2.671 2.671 0 0 0-.496-1.554 2.346 2.346 0 0 0-1.273-.9 2.81 2.81 0 0 0-.771-.096 7.988 7.988 0 0 0-.863.06c-.287.032-.58.066-.863.1l-.382.045-.914.107.432-.877c.078-.154.188-.286.321-.385l1.103-.858c1.169-.91 2.377-1.85 3.568-2.771.34-.263.557-.566.66-.927a.452.452 0 0 0 .01-.2c-.093-.225-.242-.363-.446-.408-1.92-.43-3.487-.681-4.93-.794-1.84-.144-3.469-.825-4.84-2.025a12.23 12.23 0 0 0-1.192-.91 2.827 2.827 0 0 0-1.34-.508 2.61 2.61 0 0 0-.216-.01c-.587 0-1.155.22-1.688.652a25.368 25.368 0 0 0-2.17 1.96c-.828.847-1.648 1.74-2.44 2.606-.285.31-.57.621-.857.93-.33.358-.67.565-1.072.652-.372.087-.71.293-.97.592a3.097 3.097 0 0 0-.65 1.174c-.217.682-.676 1.105-1.328 1.223-.445.082-.874.281-1.35.63-.13.094-.255.192-.388.295-.223.173-.453.35-.696.512-.371.245-.747.37-1.114.37-.525 0-1.013-.251-1.449-.738a1.308 1.308 0 0 1-.343-1.022c.04-.366.235-.676.548-.89 1.087-.742 1.712-1.854 1.911-3.397.062-.484.099-.988.134-1.476.02-.27.04-.55.064-.829.088-.99.614-1.556 1.522-1.636l.69-.06a82.9 82.9 0 0 0 1.856-.17c.476-.05.983-.107 1.48-.213a.96.96 0 0 0 .422-.219c.122-.108.219-.246.281-.403.108-.293.055-.606-.157-.93-.755-1.149-1.496-2.334-2.213-3.48-.458-.733-.931-1.49-1.403-2.23-.514-.805-.623-1.676-.322-2.588.178-.54.331-1.102.461-1.584.069-.264.123-.533.162-.805.113-.736-.17-1.197-.867-1.408-.368-.112-.75-.178-1.156-.25-.181-.032-.371-.065-.557-.101-1.659-.33-3.073-1.237-4.203-2.697-.435-.563-.922-.952-1.488-1.187a3.231 3.231 0 0 0-1.246-.256c-.576 0-1.178.164-1.79.486a543.972 543.972 0 0 0-5.758 3.093l-.83.451a77.8 77.8 0 0 0-1.213.676c-.551.31-1.12.632-1.693.931a2.407 2.407 0 0 1-1.113.294c-.582 0-1.133-.244-1.635-.726a2.181 2.181 0 0 0-1.574-.648c-.125 0-.25.01-.375.027a11.97 11.97 0 0 0-.738.134c-.27.054-.55.11-.835.15a8.642 8.642 0 0 1-1.135.07c-.776 0-1.55-.087-2.298-.17l-.325-.037c-.524-.057-.96-.1-1.396-.1-.806 0-1.416.156-1.979.505l-.61.378-.113-.751c-.11-.736-.498-1.297-1.219-1.766-.167-.11-.338-.21-.519-.319a13.52 13.52 0 0 1-.676-.42 3.897 3.897 0 0 1-.484-.41l-.173-.161-.178-.158v-.772l.029-.087.097-.285c.069-.2.14-.405.202-.606.11-.345.216-.691.325-1.037.186-.596.375-1.213.572-1.817.232-.71.702-1.199 1.399-1.453a.386.386 0 0 0 .118-.073c.125-.29.258-.62.293-.923.092-.813.206-1.678.472-2.522.514-1.636 1.43-3.019 2.8-4.227l1.288-1.134c.679-.597 1.38-1.215 2.07-1.825a1.41 1.41 0 0 0 .5-1.052 16.62 16.62 0 0 0-.049-1.556c-.049-.71-.25-1.207-.654-1.613-.448-.45-.869-.901-1.101-1.474-.312-.771-.552-1.55-.806-2.373-.101-.328-.205-.666-.314-1.002l-.21-.637.626-.058c.17-.015.336-.033.498-.05.362-.038.704-.074 1.057-.088.843-.034 1.332-.4 1.585-1.187.072-.223.148-.436.232-.672.253-.705.76-1.11 1.466-1.172 1.108-.1 2.234-.207 3.323-.312l1.76-.167a6.755 6.755 0 0 0 1.142-.205 4.2 4.2 0 0 1 1.098-.133c.12 0 .246.004.374.012.78.045 1.467.36 2.135.663l1.56.714c1.54.702 3.132 1.427 4.696 2.143 1.313.6 2.42.92 3.486 1.002 1.902.15 3.45.234 4.871.266 1.472.033 2.733.367 3.856 1.024.31.181.62.361.933.54l.733.424c1.453.844 2.824 1.252 4.19 1.252.107 0 .215-.003.321-.008 1.49-.07 2.188-.692 2.492-2.223.19-.955.355-1.937.514-2.886l.166-.979c.14-.804.487-1.202 1.206-1.374l.685-.164c.86-.207 1.748-.42 2.626-.618 1.536-.347 3.365-.72 5.281-.856.242-.018.491-.04.73-.063l.345-.032h.923l.521.2c.451.175.919.357 1.377.539.163.054.312.146.437.27l.144.155c.546.586 1.11 1.192 1.652 1.806.203.226.352.502.432.805.08.303.09.622.028.93l-.038.208c-.032.178-.065.362-.105.546-.066.295-.137.592-.205.88-.14.575-.278 1.17-.375 1.753-.14.851.181 1.412.908 1.58.224.043.45.065.678.065.258.008.523.01.779.013.409.004.831.008 1.253.033.958.058 1.493.58 1.683 1.64.18 1.055.47 2.084.863 3.069.267.656.57 1.114.951 1.44.472.4 1.032.581 1.815.581.12 0 .244-.004.38-.012 1.452-.09 2.9-.497 4.178-.856l.244-.068a39.07 39.07 0 0 1 1.536-.41c.125-.032.253-.049.38-.05.396 0 .926.173 1.21 1.001.027.076.047.15.067.217.02.067.037.129.057.183.21.581.638.973 1.311 1.195 1.253.413 2.38.745 3.447 1.013.275.07.561.13.839.187.618.128 1.258.261 1.882.519 1.845.763 3.493 1.922 5.087 3.043.437.308.915.904.707 2l-.133.687a41.15 41.15 0 0 0-.363 2.03c-.136.947.013 1.736.455 2.411.102.162.191.331.269.507.032.068.061.133.092.194l.06.117v.719l-.008.045-.015.089c-.009.05-.018.1-.022.137-.032.277-.061.56-.089.834-.064.625-.131 1.27-.232 1.904-.134.866-.574 1.287-1.345 1.287-.047 0-.096 0-.147-.005-.982-.055-1.974-.15-2.933-.241l-.042-.004c-.19-.018-.37-.036-.544-.036a1.532 1.532 0 0 0-.517.077c-.485.17-.848.547-1.141 1.184a249.326 249.326 0 0 0-1.73 3.831c-.287.656-.748 1.023-1.37 1.092-.185.02-.37.05-.569.082l-.15.024c-.912.142-1.731.585-2.598 1.052l-.126.068c-.82.443-1.65.905-2.454 1.353l-.821.456c-.29.16-.562.24-.83.24a1.458 1.458 0 0 1-.536-.106 1.027 1.027 0 0 0-.38-.076.818.818 0 0 0-.559.218c-.474.42-.909.888-1.299 1.399-.436.58-.928.863-1.508.863-.099 0-.197-.008-.294-.024a2.32 2.32 0 0 0-.36-.03c-.684 0-1.221.362-1.64 1.103-.443.781-.989 1.334-1.671 1.689-.279.146-.566.275-.842.4-.3.137-.583.265-.86.412-.51.273-1.005.545-1.44.882-.36.279-.487.677-.366 1.152.262 1.033.712 2 1.324 2.843.603.827 1.362 1.23 2.325 1.23.174-.001.347-.014.52-.038l.644-.09c1.472-.207 2.993-.42 4.52-.42.334 0 .663.01.977.03l.051.003c.232.015.452.028.634.224.171.181.199.4.232.674a.87.87 0 0 1 .006.161v.426l-.332.119a35.46 35.46 0 0 0-.513.19 20.83 20.83 0 0 1-1.274.445 4.047 4.047 0 0 1-1.166.186h-.122c-1.403 0-2.495.583-3.337 1.782-.42.602-.992.917-1.65.917-.06 0-.12-.003-.18-.008a4.056 4.056 0 0 0-.338-.014c-.946 0-1.828.35-2.62 1.052-.31.271-.615.566-.911.851-.214.206-.435.419-.658.625l-.165.15c-.491.46-1.049.98-1.826 1.148l-.046.01-.85.015Z"/><path fill="#fff" d="M70.267 32.022c.606.235 1.212.47 1.817.708.095.03.184.081.26.15.6.645 1.203 1.289 1.787 1.951.15.164.26.366.318.588.059.221.065.455.017.68-.046.246-.086.493-.139.737-.196.887-.437 1.766-.585 2.663-.19 1.145.316 1.963 1.286 2.187.253.05.51.076.767.076.673.02 1.346.006 2.017.046.753.045 1.09.418 1.232 1.214.188 1.093.488 2.16.896 3.18.256.63.586 1.208 1.095 1.642.633.54 1.359.695 2.117.695.135 0 .27-.005.408-.013 1.458-.091 2.866-.478 4.273-.872.585-.165 1.171-.334 1.763-.475a1.22 1.22 0 0 1 .276-.035c.364 0 .603.219.753.66.046.135.078.274.126.408.292.813.897 1.268 1.623 1.507 1.15.38 2.309.729 3.48 1.023.887.224 1.798.33 2.657.685 1.797.743 3.396 1.868 4.996 2.992.503.354.61.855.496 1.453-.174.912-.368 1.822-.5 2.742-.143.992-.018 1.946.539 2.796.131.2.221.431.33.648v.538c-.014.085-.032.17-.041.254-.103.907-.176 1.818-.315 2.717-.096.62-.332.848-.865.848-.039 0-.08 0-.122-.004-.978-.055-1.953-.15-2.929-.242-.206-.02-.411-.04-.615-.04a1.982 1.982 0 0 0-.667.1c-.688.242-1.12.781-1.428 1.453a250.46 250.46 0 0 0-1.733 3.84c-.204.465-.502.74-.978.793-.248.027-.494.07-.74.108-1.038.163-1.954.677-2.874 1.173-1.098.593-2.187 1.203-3.279 1.81a1.252 1.252 0 0 1-.607.182.988.988 0 0 1-.37-.074 1.497 1.497 0 0 0-.548-.108 1.287 1.287 0 0 0-.87.34c-.5.441-.958.935-1.368 1.472-.319.424-.673.668-1.13.668-.075 0-.15-.006-.223-.018a2.75 2.75 0 0 0-.43-.035c-.897 0-1.569.49-2.058 1.357-.366.647-.835 1.162-1.466 1.49-.559.29-1.147.517-1.704.814-.518.277-1.04.564-1.509.925-.531.412-.727 1.035-.552 1.72a8.854 8.854 0 0 0 1.41 3.028c.712.98 1.631 1.43 2.709 1.43.194 0 .389-.013.581-.04 1.697-.234 3.39-.507 5.104-.507.316 0 .632.01.948.03.407.026.409.006.464.447.003.046.003.09 0 .136-.584.21-1.166.447-1.763.627a3.628 3.628 0 0 1-1.034.166h-.122c-1.546 0-2.784.651-3.726 1.991-.319.454-.738.708-1.262.708a1.72 1.72 0 0 1-.142-.006 4.537 4.537 0 0 0-.375-.016c-1.093 0-2.067.41-2.929 1.168-.54.475-1.047.995-1.577 1.484-.53.488-1.043 1.028-1.77 1.185h-.549c-.082-.126-.219-.244-.237-.38-.07-.53-.135-1.065-.139-1.599-.008-.824.057-1.648.047-2.472-.015-1.43-.878-2.602-2.135-2.956a3.235 3.235 0 0 0-.894-.114c-.305.005-.61.026-.912.064-.418.045-.832.096-1.248.144a.56.56 0 0 1 .176-.205l4.67-3.629c.399-.308.696-.696.84-1.199.05-.174.058-.405-.007-.565-.15-.365-.418-.63-.794-.713-1.65-.369-3.31-.672-4.995-.802-1.698-.133-3.233-.74-4.568-1.91a12.952 12.952 0 0 0-1.238-.945 3.28 3.28 0 0 0-1.56-.587 2.97 2.97 0 0 0-.257-.011c-.735 0-1.398.285-1.98.757-.771.62-1.51 1.288-2.212 2-1.128 1.151-2.209 2.357-3.307 3.543-.234.253-.488.435-.825.51a2.323 2.323 0 0 0-1.22.739 3.65 3.65 0 0 0-.763 1.371c-.16.504-.476.79-.948.876-.57.104-1.072.368-1.543.713-.358.26-.696.551-1.067.793-.297.196-.584.293-.86.293-.39 0-.757-.195-1.097-.577-.32-.358-.284-.83.114-1.102 1.289-.879 1.93-2.186 2.134-3.768.1-.771.132-1.553.201-2.328.066-.745.402-1.102 1.076-1.162.852-.075 1.705-.141 2.555-.23.513-.046 1.023-.12 1.529-.221.835-.18 1.588-1.246.848-2.372-1.234-1.878-2.402-3.807-3.612-5.704-.426-.668-.514-1.353-.264-2.114.175-.53.325-1.072.47-1.613a8.09 8.09 0 0 0 .175-.866c.151-.99-.263-1.711-1.216-2-.571-.174-1.17-.244-1.756-.361-1.594-.317-2.884-1.18-3.917-2.516-.46-.595-1.013-1.06-1.687-1.34a3.665 3.665 0 0 0-1.421-.292c-.683 0-1.352.195-2.004.539-2.206 1.162-4.399 2.354-6.592 3.545-.972.527-1.924 1.094-2.901 1.604-.28.153-.589.235-.903.24-.46 0-.9-.2-1.31-.593a2.665 2.665 0 0 0-1.898-.78c-.146 0-.292.01-.438.03-.525.073-1.043.213-1.57.282a8.28 8.28 0 0 1-1.075.067c-.86 0-1.717-.11-2.575-.204-.483-.05-.966-.104-1.445-.104-.755 0-1.5.127-2.221.574-.15-.993-.7-1.646-1.448-2.132-.391-.254-.802-.473-1.188-.735-.219-.15-.406-.35-.607-.53v-.431c.101-.301.207-.602.303-.902.298-.952.584-1.904.893-2.85a1.706 1.706 0 0 1 1.093-1.126c.152-.055.333-.182.396-.328.152-.35.301-.724.344-1.102.093-.82.202-1.631.45-2.417.51-1.62 1.432-2.917 2.647-3.989 1.12-.987 2.241-1.97 3.358-2.96.418-.37.663-.858.679-1.44a16.97 16.97 0 0 0-.05-1.61c-.052-.752-.268-1.418-.809-1.96-.378-.38-.785-.801-.985-1.3-.43-1.06-.733-2.182-1.107-3.337.543-.05 1.037-.117 1.531-.137.992-.04 1.694-.501 2.028-1.54.071-.22.148-.437.226-.654.186-.519.526-.793 1.051-.839 1.696-.15 3.39-.32 5.085-.478a7.233 7.233 0 0 0 1.219-.22c.321-.081.65-.12.98-.116.117 0 .232.004.348.011.704.041 1.352.34 1.995.634l6.232 2.843c1.168.535 2.373.944 3.64 1.044 1.63.128 3.263.23 4.897.267 1.288.028 2.5.3 3.634.96.554.324 1.113.643 1.667.965 1.387.806 2.843 1.318 4.421 1.318.113 0 .227-.003.342-.008 1.692-.08 2.593-.86 2.947-2.639.255-1.287.46-2.585.682-3.88.1-.585.3-.829.832-.956 1.102-.263 2.202-.532 3.306-.78 1.723-.39 3.454-.72 5.214-.847.36-.026.721-.063 1.082-.095h.798m.17-1.052H69.43l-.04.003-.346.032c-.249.023-.484.045-.721.062-1.946.14-3.796.516-5.349.867-.881.2-1.772.412-2.634.62l-.683.163c-.905.216-1.407.786-1.577 1.792-.057.328-.112.66-.167.982-.158.945-.324 1.922-.51 2.868-.257 1.293-.77 1.75-2.037 1.809-.1.004-.2.007-.3.007-1.283 0-2.578-.39-3.959-1.192a281.582 281.582 0 0 1-1.665-.963c-1.193-.697-2.527-1.053-4.077-1.088a86.105 86.105 0 0 1-4.847-.265c-1.01-.079-2.068-.385-3.33-.962-1.555-.712-3.135-1.432-4.665-2.13l-1.568-.715-.026-.011c-.67-.306-1.432-.651-2.295-.701a6.996 6.996 0 0 0-.4-.013 4.636 4.636 0 0 0-1.218.15c-.35.095-.707.159-1.067.192-.588.055-1.185.112-1.763.168-1.089.105-2.214.212-3.32.31-.892.079-1.56.614-1.88 1.507-.086.24-.164.459-.237.689-.155.48-.409.805-1.144.834-.367.015-.716.05-1.086.09-.16.018-.325.035-.493.05l-1.253.116.415 1.28c.107.332.21.668.31.993.247.799.502 1.625.823 2.418.27.666.748 1.18 1.216 1.65.31.311.46.69.5 1.266.039.5.054 1.001.046 1.503-.004.163-.043.41-.323.658-.687.61-1.392 1.226-2.068 1.823l-1.288 1.135a10.494 10.494 0 0 0-1.76 1.984 9.544 9.544 0 0 0-1.194 2.48c-.28.893-.398 1.787-.494 2.627-.02.179-.096.393-.18.602-.783.313-1.337.912-1.606 1.737-.198.609-.39 1.227-.574 1.825-.105.34-.214.692-.322 1.035-.06.194-.127.386-.197.59l-.099.29-.059.174v1.113l.356.316c.05.045.104.095.16.15.171.169.354.323.547.46.237.16.472.3.7.436.177.105.344.204.503.309.598.388.902.82.99 1.399l.225 1.503 1.221-.757c.485-.3 1.021-.434 1.737-.434.446 0 .925.05 1.345.1.109.011.216.023.325.036.761.085 1.548.173 2.349.173a9.036 9.036 0 0 0 2.06-.228c.248-.05.482-.097.71-.129a2.27 2.27 0 0 1 .314-.022c.462-.008.91.177 1.25.515.594.57 1.253.859 1.958.859.46-.005.915-.124 1.327-.347.578-.3 1.151-.625 1.705-.938.397-.223.806-.454 1.207-.672l.829-.451c1.883-1.021 3.83-2.077 5.753-3.09.545-.288 1.075-.433 1.578-.433.366 0 .73.075 1.07.22.487.201.909.541 1.29 1.034 1.206 1.556 2.715 2.524 4.488 2.877.192.038.383.071.568.103.37.056.738.135 1.101.235.162.05.375.14.468.296.086.143.075.362.05.52-.036.252-.086.5-.149.745a29.215 29.215 0 0 1-.452 1.553c-.356 1.08-.228 2.11.38 3.063.47.737.943 1.494 1.4 2.225.718 1.15 1.46 2.337 2.22 3.49.166.255.117.388.101.432a.54.54 0 0 1-.14.193.49.49 0 0 1-.206.107c-.475.1-.967.158-1.431.207-.614.064-1.243.117-1.852.169l-.689.06c-.572.05-1.034.26-1.374.626-.34.366-.538.863-.593 1.483-.025.283-.046.566-.065.84-.036.5-.07.975-.13 1.443-.088.678-.267 1.27-.535 1.758a3.58 3.58 0 0 1-1.154 1.266c-.44.301-.714.752-.773 1.272a1.87 1.87 0 0 0 .477 1.45c.663.743 1.346.9 1.8.9.455 0 .917-.151 1.367-.447.26-.172.498-.356.728-.534.13-.1.253-.196.376-.287.418-.305.785-.478 1.16-.546.828-.15 1.434-.709 1.708-1.572.108-.365.291-.7.536-.976.193-.225.445-.38.721-.445.493-.109.924-.37 1.319-.797.288-.31.578-.628.86-.934.788-.86 1.605-1.75 2.428-2.59a24.846 24.846 0 0 1 2.127-1.922c.447-.362.916-.545 1.394-.545.058 0 .118.002.177.007.381.035.748.174 1.12.428.397.267.78.558 1.145.874 1.45 1.269 3.17 1.99 5.112 2.141 1.421.11 2.97.36 4.867.784.015.003.03.01.042.019-.08.214-.225.4-.45.573a962.6 962.6 0 0 0-3.573 2.776l-1.099.855c-.193.146-.352.34-.464.564l-.865 1.753 1.83-.212.385-.045c.28-.033.572-.068.856-.1.284-.033.553-.058.814-.058a2.36 2.36 0 0 1 .647.079c.844.24 1.396 1.005 1.406 1.954.003.386-.01.774-.024 1.184-.014.418-.029.852-.025 1.288.007.602.078 1.186.15 1.735.053.401.265.664.379.805l.031.04.287.44h1.15l.093-.02c.903-.196 1.512-.765 2.05-1.267l.161-.15c.228-.21.45-.425.666-.633.306-.294.594-.572.894-.836.714-.627 1.47-.932 2.313-.932.099 0 .2.005.3.013.073.006.146.01.218.01.817 0 1.522-.39 2.038-1.125.754-1.075 1.692-1.575 2.95-1.575h.122a4.51 4.51 0 0 0 1.299-.205c.448-.135.881-.3 1.302-.455l.507-.188.665-.24v-.789c.004-.082 0-.165-.01-.246-.037-.301-.085-.67-.373-.978-.314-.335-.68-.358-.95-.375l-.048-.003a15.67 15.67 0 0 0-1.007-.031c-1.558 0-3.096.216-4.583.425l-.642.09a3.35 3.35 0 0 1-.459.033c-.815 0-1.432-.327-1.941-1.028a7.764 7.764 0 0 1-1.238-2.658c-.068-.265-.016-.434.18-.585.405-.314.882-.575 1.373-.837.263-.14.54-.266.832-.4.282-.13.573-.261.864-.413.758-.395 1.389-1.03 1.874-1.89.427-.755.881-.851 1.226-.851.096 0 .193.008.288.024.121.02.243.03.365.03.724 0 1.359-.356 1.886-1.058a9.35 9.35 0 0 1 1.234-1.325.355.355 0 0 1 .248-.1.587.587 0 0 1 .213.044c.225.09.463.137.704.138.346 0 .69-.1 1.051-.298l.82-.455c.802-.447 1.632-.909 2.45-1.35l.128-.07c.83-.45 1.616-.873 2.45-1.001l.15-.024c.192-.03.372-.06.549-.08.552-.06 1.305-.35 1.76-1.389a250.907 250.907 0 0 1 1.726-3.822c.3-.652.615-.834.856-.919.118-.037.242-.054.365-.05.152 0 .322.017.502.034h.042c.964.091 1.96.187 2.95.243.059.003.117.005.172.005.522 0 .931-.15 1.25-.464.302-.295.49-.707.576-1.262.101-.65.168-1.302.232-1.935.028-.272.057-.554.088-.828l.017-.1.017-.095.015-.092v-.908l-.118-.235-.086-.179c-.088-.2-.19-.391-.305-.574-.372-.566-.489-1.21-.372-2.028a41.13 41.13 0 0 1 .358-2l.134-.69c.278-1.46-.457-2.223-.919-2.547-1.615-1.136-3.285-2.31-5.179-3.093-.664-.275-1.325-.413-1.964-.545-.285-.06-.554-.115-.82-.182a50.574 50.574 0 0 1-3.414-1.002c-.696-.23-.904-.614-1-.883a2.193 2.193 0 0 1-.047-.15 8.626 8.626 0 0 0-.075-.244c-.137-.4-.336-.715-.591-.942a1.595 1.595 0 0 0-1.076-.405 2.107 2.107 0 0 0-.486.06 42.21 42.21 0 0 0-1.554.416l-.243.068c-1.256.35-2.68.752-4.083.84-.126.008-.24.011-.351.011-.666 0-1.133-.144-1.513-.468-.317-.27-.574-.664-.807-1.238-.38-.949-.658-1.94-.831-2.956-.114-.634-.336-1.11-.678-1.457-.368-.372-.844-.571-1.457-.608-.431-.026-.86-.03-1.274-.035-.254 0-.516-.005-.77-.013a3.21 3.21 0 0 1-.59-.053c-.33-.076-.65-.25-.53-.973.092-.565.226-1.124.367-1.717.07-.29.14-.588.207-.887.043-.196.077-.385.11-.569l.037-.204c.078-.39.066-.796-.036-1.18a2.47 2.47 0 0 0-.549-1.021c-.546-.62-1.113-1.228-1.66-1.816l-.145-.156a1.593 1.593 0 0 0-.612-.391c-.46-.182-.926-.363-1.377-.538l-.445-.173-.16-.062h.002Z"/><path fill="#245EAC" d="m100.632 122.279-.384-2.244h-4.68v-18.852h3.457v3.871c0 .935.005 1.886.01 2.806.011 2.261.023 4.599-.035 6.901-.014.554.056.909.214 1.084.139.15.403.226.81.226.069 0 .143 0 .219-.006.599-.033 1.248-.05 2.042-.05.504 0 1.008.006 1.541.012.408.005.826.01 1.256.012v-14.738h3.603v18.517l-4.561.241-.493 2.22h-2.999Z"/><path fill="#245EAC" d="M98.561 101.684v3.371c0 3.231.057 6.462-.025 9.694-.034 1.345.39 1.824 1.488 1.824.078 0 .159 0 .243-.007.666-.037 1.333-.05 2.017-.05 1.032 0 2.101.025 3.26.025v-14.74h2.676v17.539l-4.467.237-.489 2.201h-2.246l-.384-2.244h-4.601v-17.85h2.528Zm.928-1.002h-4.384v19.854h4.757l.244 1.425.139.819h3.75l.17-.768.168-.757.159-.714 2.403-.127 1.369-.073.882-.046v-19.496h-4.532v14.738l-.789-.008c-.535-.006-1.04-.012-1.546-.012-.801 0-1.457.015-2.064.05a3.363 3.363 0 0 1-.195.005c-.36 0-.467-.067-.479-.075-.011-.008-.096-.167-.082-.72.059-2.31.047-4.653.035-6.919-.005-.919-.01-1.87-.01-2.803v-4.373h.005Z"/><path fill="#245EAC" stroke="#245EAC" stroke-miterlimit="10" stroke-width="1.002" d="M58.685 101.137h4.479l4.233 14.655 4.234-14.655h4.478l-6.774 20.64H65.43l-6.745-20.64Zm20.665 20.641v-20.64h12.7v3.627h-8.467v5.073h7.347v3.627h-7.347v8.316l-4.233-.003Z"/><path fill="#245EAC" d="M121.459 99.376a3.97 3.97 0 0 0-.881 2.515c.032 2.117.273 4.23.294 6.346.043 1.973-.505 3.825-1.171 5.633-.222.501-.464.988-.703 1.478l-.706-.155a1.166 1.166 0 0 1-.715-.487 1.344 1.344 0 0 1 .151-1.696 1.13 1.13 0 0 1 .788-.331l.258.031-.574-5.177a8.39 8.39 0 0 0-1.174-3.638 7.618 7.618 0 0 0-2.619-2.617v18.385h3.931c.289 1.69 1.146 3.205 2.405 4.255.295.219.54.507.716.842a2.5 2.5 0 0 1 .717-.842c1.259-1.05 2.116-2.565 2.405-4.255h3.93v-18.385a7.627 7.627 0 0 0-2.618 2.618 8.369 8.369 0 0 0-1.174 3.639l-.574 5.177.257-.03c.291.002.571.12.786.332.215.212.349.502.377.815.028.313-.052.626-.225.878a1.17 1.17 0 0 1-.713.489l-.707.154c-.24-.49-.48-.978-.702-1.478-.666-1.807-1.214-3.66-1.171-5.633.021-2.116.261-4.229.294-6.346a3.965 3.965 0 0 0-.882-2.515v-.002Zm-5.876 4.547a6.914 6.914 0 0 1 1.423 3.486l.473 4.269a2.405 2.405 0 0 0-.78.674 2.621 2.621 0 0 0-.45.963h-.666v-9.392Zm11.753 0v9.392h-.665a2.627 2.627 0 0 0-.451-.962 2.408 2.408 0 0 0-.78-.675l.473-4.269a6.905 6.905 0 0 1 1.423-3.486Zm-5.877 8.584a15.143 15.143 0 0 0 1.291 3.156 2.647 2.647 0 0 0-1.291.937 2.642 2.642 0 0 0-1.289-.937c.544-.993.977-2.052 1.289-3.156Zm-5.876 2.077h.665a2.6 2.6 0 0 0 .601 1.143c.289.317.65.547 1.048.667l.564.139a7.545 7.545 0 0 0-.232 1.859h-2.644l-.002-3.808Zm11.089 0h.665v3.807h-2.645a7.456 7.456 0 0 0-.232-1.859l.565-.139a2.323 2.323 0 0 0 1.049-.667 2.6 2.6 0 0 0 .6-1.142h-.002Zm-7.062 2.241c.349.054.67.241.902.529.232.288.36.656.36 1.038h-1.469c.001-.53.071-1.057.207-1.567Zm3.701 0c.136.51.205 1.037.206 1.567h-1.469c0-.382.128-.75.36-1.038.232-.288.553-.475.903-.529Zm-3.776 2.838h1.337v2.673a5.876 5.876 0 0 1-1.337-2.673Zm2.512 0h1.336a5.869 5.869 0 0 1-1.336 2.673v-2.673ZM69.12 8.488l2.843-5.892-1.165-.13L68.745 7l-.996-4.877-1.166-.13c.479 2.138.98 4.235 1.459 6.374l1.078.12Zm3.05-2.762c-.368 1.716.764 3.419 2.489 3.788 1.724.369 3.454-.721 3.822-2.437.367-1.716-.766-3.42-2.49-3.788-1.724-.37-3.455.721-3.822 2.437Zm1.12.24c.26-1.216 1.375-1.915 2.487-1.677s1.843 1.332 1.583 2.548-1.375 1.915-2.487 1.677c-1.113-.238-1.843-1.332-1.583-2.548Zm6.909 3.994 1.582-5.008-1.073-.339-1.851 5.864 3.736 1.18.27-.855-2.664-.841Zm8.943-2.337-1.482 3.566c-.37.887-1.138 1.083-1.814.802-.684-.284-1.08-.964-.71-1.851l1.482-3.567-1.042-.433-1.482 3.566c-.606 1.458.118 2.656 1.38 3.18 1.245.519 2.622.193 3.228-1.264l1.482-3.566-1.042-.433Zm3.671 8.746.745.406 2.962-5.431-.993-.542-1.985 3.64-.7-5.104-.752-.41-2.963 5.43.993.542 1.998-3.662.695 5.131Zm4.966-4.249-.509.754 1.567 1.056-2.948 4.37.937.631 2.947-4.369 1.581 1.067.509-.754-4.084-2.755Zm4.477 10.942.561-.703-2.252-1.8 1.046-1.309 1.963 1.57.562-.703-1.963-1.569 1.117-1.398 2.252 1.8.568-.71-3.134-2.504-3.854 4.82 3.134 2.506Zm3.789 3.533.618-.654-2.097-1.98 1.15-1.218 1.827 1.726.618-.654-1.827-1.726 1.229-1.301 2.096 1.98.624-.66-2.917-2.755-4.238 4.487 2.917 2.755Zm3.928-.423 1.551-1.374.9 1.017c.38.429.301 1.005-.148 1.402-.455.404-1.012.414-1.403-.029l-.9-1.016Zm3.057 1.91c.792-.702 1.023-1.837.211-2.755l-1.765-1.994-4.622 4.092.749.845 1.696-1.502.69.779c-.481.52-1.43 1.949-.466 3.038.351.396.71.55 1.175.609l.318-.812a.95.95 0 0 1-.655-.327c-.438-.495-.061-1.253.358-1.777.744.508 1.631.405 2.311-.197Zm-1.31 2.624c-.691.717-.675 1.892.033 2.851.702.952 1.808 1.389 2.761.687.479-.354.864-1.117.46-2.3l-.236-.806c-.205-.677.013-.914.182-1.039.395-.29.83-.1 1.127.302.265.36.386.805.003 1.348l.879.528c.539-.746.53-1.643-.078-2.469-.661-.896-1.743-1.24-2.611-.601-.409.302-.926.944-.495 2.238l.25.796c.162.545.105.925-.177 1.133-.395.291-.904.089-1.284-.426-.395-.536-.373-1.14-.027-1.558l-.787-.684Zm3.853 8.307 2.24-1.287 1.257 2.186.782-.45-1.256-2.186 1.557-.895 1.441 2.508.791-.454-2.006-3.49-5.37 3.086.564.982Zm4.493 1.747c-1.597.718-2.296 2.636-1.573 4.24.723 1.605 2.623 2.352 4.219 1.632 1.597-.719 2.297-2.636 1.574-4.241-.723-1.605-2.623-2.351-4.22-1.632Zm.47 1.042c1.131-.51 2.353-.027 2.819 1.008.466 1.035.019 2.27-1.113 2.78-1.131.51-2.352.026-2.819-1.009-.466-1.035-.018-2.27 1.113-2.779Zm3.084 7.217 1.97-.645.422 1.29c.178.546-.123 1.043-.693 1.23-.578.189-1.093-.023-1.276-.585l-.423-1.29Zm2.047 2.967c1.006-.33 1.669-1.28 1.288-2.444l-.828-2.53-5.866 1.919.351 1.072 2.154-.705.323.99c-.648.286-2.087 1.22-1.634 2.603.164.503.433.786.836 1.025l.614-.618a.953.953 0 0 1-.471-.56c-.205-.629.442-1.175 1.035-1.49.481.762 1.335 1.02 2.198.738Zm3.688 7.501-3.799.694c-.945.173-1.528-.366-1.659-1.086-.133-.729.223-1.43 1.168-1.603l3.799-.694-.203-1.11-3.799.694c-1.552.284-2.165 1.543-1.919 2.887.242 1.327 1.263 2.306 2.816 2.022l3.799-.694-.203-1.11Zm-2.797 4.555-1.581 1.2c-.572.4-1.147.979-1.08 1.817.029.352.161.794.443 1.1.262-.163.499-.315.761-.469a.925.925 0 0 1-.229-.532c-.028-.361.129-.507.659-.975l1.386-1.087 3.139 1.86.141-.01-.093-1.174-3.088-1.767 2.927-.234-.09-1.129-6.172.494.09 1.129 2.787-.223Zm.682 5.909 2.071.034-.022 1.358c-.009.573-.456.945-1.055.935-.609-.01-1.026-.378-1.016-.969l.022-1.358Zm.966 3.473c1.058.017 1.995-.665 2.015-1.89l.043-2.662-6.171-.1-.018 1.128 2.265.037-.016 1.04c-.707.06-2.371.473-2.395 1.928-.009.529.153.884.456 1.242l.782-.385a.948.948 0 0 1-.262-.683c.011-.661.8-.966 1.463-1.07.207.877.93 1.4 1.838 1.415Zm-4.338 1.859 1.151.566-.271 2.689-1.243.342-.116 1.143 6.351-1.757.117-1.161-5.872-2.974-.117 1.152Zm1.82 3.023.207-2.05 2.768 1.32-2.975.73Zm3.414 4.726.194-1.112-6.079-1.064-.195 1.111 6.08 1.065Zm-7.356 4.514-.207.82 5.984 1.513.277-1.095-4.01-1.013 4.757-1.944.209-.83-5.984-1.512-.276 1.095 4.035 1.02-4.785 1.946Zm-2.054 6.043.845.306.98-2.71 1.575.57-.854 2.361.845.306.854-2.362 1.683.608-.98 2.71.853.31 1.364-3.772-5.801-2.098-1.364 3.77Z"/></svg>