<svg id="Hippo" xmlns="http://www.w3.org/2000/svg" viewBox="0 0 199 184.38"><defs><style>.cls-1{fill:#06b723;}.cls-2{fill:#00d22f;}.cls-3{fill:#0add31;}.cls-4{fill:#02c627;}.cls-5{fill:lime;}.cls-6{fill:#22e03d;}.cls-7{fill:#026116;}.cls-8{fill:#fff;}</style></defs><polygon class="cls-1" points="22.25 148.77 22.25 168.48 52.77 167.21 53.41 151.95 22.25 148.77"/><polygon class="cls-1" points="87.74 182.47 56.59 184.38 56.59 157.04 87.74 157.04 87.74 182.47"/><polygon class="cls-1" points="174.2 176.75 143.05 178.66 143.05 150.68 174.2 150.68 174.2 176.75"/><polygon class="cls-2" points="132.88 156.4 132.88 174.2 143.05 178.66 143.05 150.68 132.88 156.4"/><polygon class="cls-3" points="47.05 159.58 47.05 179.93 56.59 184.38 56.59 157.04 47.05 159.58"/><polygon class="cls-3" points="12.08 144.32 12.08 163.4 22.25 168.48 22.25 148.77 12.08 144.32"/><polygon class="cls-4" points="195.85 156.24 57.42 166.47 57.42 41.41 195.46 31.57 195.85 156.24"/><polygon class="cls-5" points="57.42 41.41 0 17.81 0 142.09 57.42 166.47 57.42 41.41"/><polygon class="cls-6" points="0 17.81 141.58 8.37 195.85 31.97 57.42 41.41 0 17.81"/><polygon class="cls-2" points="199 127.14 84.95 134.22 84.95 86.24 199 78.38 199 127.14"/><polygon class="cls-5" points="69.22 78.38 84.95 86.24 84.95 134.22 69.22 126.36 69.22 78.38"/><polygon class="cls-6" points="180.91 70.51 69.22 78.38 84.95 86.24 199 78.38 180.91 70.51"/><polygon class="cls-5" points="84.56 8.27 80.11 6.36 49.59 7.63 49.59 31.79 53.41 34.33 84.56 8.27"/><polygon class="cls-5" points="167.21 1.91 162.13 0 131.61 1.91 131.61 25.43 136.06 28.61 167.21 1.91"/><polygon class="cls-2" points="53.41 9.54 53.41 34.33 84.56 32.42 84.56 8.27 53.41 9.54"/><polygon class="cls-2" points="136.06 3.81 136.06 28.61 167.21 26.07 167.21 1.91 136.06 3.81"/><polygon class="cls-7" points="59.13 34.33 79.47 33.06 79.47 15.26 59.13 15.89 59.13 34.33"/><polygon class="cls-7" points="141.78 27.97 162.13 26.7 162.13 8.9 141.78 10.17 141.78 27.97"/><polygon points="141.78 49.59 141.78 57.8 114.44 59.36 114.44 51.5 93.46 52.77 93.46 69.3 114.44 68.03 114.44 61.91 141.78 60.35 141.78 66.12 162.76 64.85 162.76 48.32 141.78 49.59"/><polygon class="cls-8" points="103.63 57.86 96 58.49 96 55.31 103.63 54.68 103.63 57.86"/><polygon class="cls-8" points="151.95 54.68 144.32 55.31 144.32 52.13 151.95 51.5 151.95 54.68"/><polygon class="cls-7" points="132.88 120.16 122.71 120.8 122.71 94.73 132.88 94.1 132.88 120.16"/><polygon class="cls-7" points="162.13 118.26 151.95 118.89 151.95 92.82 162.13 92.19 162.13 118.26"/></svg>