<svg width="225" height="197" viewBox="0 0 225 197" fill="none" xmlns="http://www.w3.org/2000/svg">
<path d="M4.08033 14.2513C4.08033 14.2513 151.552 -40.6195 206.691 64.9742C236.42 121.905 221.004 168.491 221.004 168.491C221.004 168.491 108.684 227.493 44.8186 175.735C-19.0468 123.976 4.08033 14.2513 4.08033 14.2513Z" fill="#E0ECF8"/>
<path d="M75.5273 100.056H75.2717L70.2839 143H50.9756L41 62.4053H54.6815L62.0973 125.954H62.3529L69.006 62.4053H82.5598L89.4644 126.416H89.7199L96.8801 62.4053H109.156L99.1803 142.996H80.511L75.5273 100.056ZM153.284 84.6258H153.028V142.996H140.369V62.4053H158.016L172.213 110.644H172.468V62.4053H185V142.996H170.547L153.284 84.6258ZM116.197 77.5339V142.996H130.265V77.5339H116.197ZM124.045 56.1296C124.689 55.7338 124.989 54.9544 124.783 54.2287C124.577 53.5031 123.914 53 123.155 53C122.401 53 121.733 53.5031 121.527 54.2287C121.321 54.9544 121.621 55.7338 122.265 56.1296L119.836 61.0117C119.655 61.3786 119.317 61.6426 118.917 61.7332C118.518 61.8239 118.101 61.725 117.779 61.4694L113.983 58.447C114.457 57.8161 114.433 56.9461 113.929 56.3399C113.422 55.7338 112.569 55.5565 111.868 55.907C111.164 56.2575 110.797 57.0491 110.974 57.8161C111.155 58.583 111.84 59.1232 112.627 59.1232L114.609 69.749C114.845 71.0396 115.966 71.9757 117.277 71.9757H129.021C130.332 71.9757 131.457 71.0355 131.688 69.749L133.625 59.0984H133.658C134.343 59.0984 134.965 58.6861 135.225 58.0511C135.484 57.4161 135.34 56.6862 134.854 56.1997C134.367 55.7173 133.637 55.5729 133.003 55.8369C132.368 56.1008 131.956 56.7234 131.96 57.4079C131.956 57.7749 132.079 58.1294 132.302 58.4222L128.505 61.4446C128.184 61.7003 127.768 61.7992 127.367 61.7085C126.968 61.6178 126.63 61.3539 126.449 60.9869L124.045 56.1296Z" fill="url(#paint0_linear_168_9)"/>
<defs>
<linearGradient id="paint0_linear_168_9" x1="34.7418" y1="33.6562" x2="131.582" y2="150.458" gradientUnits="userSpaceOnUse">
<stop offset="0.0809" stop-color="#0256A7"/>
<stop offset="0.1533" stop-color="#1857A4"/>
<stop offset="0.2408" stop-color="#33599E"/>
<stop offset="0.3361" stop-color="#505C95"/>
<stop offset="0.437" stop-color="#6F6288"/>
<stop offset="0.5423" stop-color="#906A76"/>
<stop offset="0.6514" stop-color="#B9755C"/>
<stop offset="0.7614" stop-color="#E7832F"/>
<stop offset="0.7885" stop-color="#F6871F"/>
</linearGradient>
</defs>
</svg>
